<svg width="1024" height="753" viewBox="0 0 1024 753" fill="none" xmlns="http://www.w3.org/2000/svg">
<g clip-path="url(#clip0_122_130)">
<rect width="1024" height="753" fill="#121214"/>
<g opacity="0.2" filter="url(#filter0_f_122_130)">
<ellipse cx="520" cy="35.0804" rx="400" ry="225.08" fill="#35875D"/>
</g>
<path d="M233.966 186.849C234.858 186.849 235.533 187.254 235.992 188.065C236.458 188.867 236.692 190.034 236.692 191.567C236.692 193.099 236.458 194.271 235.992 195.082C235.533 195.892 234.858 196.298 233.966 196.298C233.082 196.298 232.407 195.892 231.94 195.082C231.473 194.271 231.239 193.099 231.239 191.567C231.239 190.043 231.473 188.876 231.94 188.065C232.407 187.254 233.082 186.849 233.966 186.849ZM232.127 191.567C232.127 192.654 232.219 193.505 232.402 194.119L235.179 188.199C234.887 187.78 234.483 187.571 233.966 187.571C233.39 187.571 232.94 187.9 232.615 188.56C232.29 189.21 232.127 190.212 232.127 191.567ZM233.966 195.563C234.549 195.563 235.004 195.237 235.329 194.587C235.654 193.928 235.816 192.921 235.816 191.567C235.816 190.417 235.712 189.526 235.504 188.894L232.728 194.868C233.028 195.331 233.44 195.563 233.966 195.563Z" fill="url(#paint0_linear_122_130)" fill-opacity="0.6"/>
<path d="M234.716 210.73H236.554V211.438H231.79V210.73H233.916V203.219L231.89 204.515L231.54 203.914L234.041 202.257H234.716V210.73Z" fill="url(#paint1_linear_122_130)" fill-opacity="0.6"/>
<path d="M233.966 217.397C234.858 217.397 235.533 217.802 235.992 218.613C236.458 219.415 236.692 220.582 236.692 222.115C236.692 223.647 236.458 224.819 235.992 225.63C235.533 226.44 234.858 226.846 233.966 226.846C233.082 226.846 232.407 226.44 231.94 225.63C231.473 224.819 231.239 223.647 231.239 222.115C231.239 220.591 231.473 219.424 231.94 218.613C232.407 217.802 233.082 217.397 233.966 217.397ZM232.127 222.115C232.127 223.202 232.219 224.053 232.402 224.667L235.179 218.747C234.887 218.328 234.483 218.119 233.966 218.119C233.39 218.119 232.94 218.448 232.615 219.108C232.29 219.758 232.127 220.76 232.127 222.115ZM233.966 226.111C234.549 226.111 235.004 225.785 235.329 225.135C235.654 224.476 235.816 223.469 235.816 222.115C235.816 220.965 235.712 220.074 235.504 219.442L232.728 225.416C233.028 225.879 233.44 226.111 233.966 226.111Z" fill="url(#paint2_linear_122_130)" fill-opacity="0.6"/>
<path d="M234.716 241.278H236.554V241.986H231.79V241.278H233.916V233.767L231.89 235.063L231.54 234.462L234.041 232.805H234.716V241.278Z" fill="url(#paint3_linear_122_130)" fill-opacity="0.6"/>
<path d="M234.716 256.552H236.554V257.26H231.79V256.552H233.916V249.041L231.89 250.337L231.54 249.736L234.041 248.078H234.716V256.552Z" fill="url(#paint4_linear_122_130)" fill-opacity="0.6"/>
<path d="M233.966 263.219C234.858 263.219 235.533 263.624 235.992 264.435C236.458 265.237 236.692 266.404 236.692 267.937C236.692 269.469 236.458 270.641 235.992 271.452C235.533 272.262 234.858 272.668 233.966 272.668C233.082 272.668 232.407 272.262 231.94 271.452C231.473 270.641 231.239 269.469 231.239 267.937C231.239 266.413 231.473 265.246 231.94 264.435C232.407 263.624 233.082 263.219 233.966 263.219ZM232.127 267.937C232.127 269.024 232.219 269.874 232.402 270.489L235.179 264.569C234.887 264.15 234.483 263.941 233.966 263.941C233.39 263.941 232.94 264.27 232.615 264.93C232.29 265.58 232.127 266.582 232.127 267.937ZM233.966 271.933C234.549 271.933 235.004 271.607 235.329 270.957C235.654 270.298 235.816 269.291 235.816 267.937C235.816 266.787 235.712 265.896 235.504 265.264L232.728 271.238C233.028 271.701 233.44 271.933 233.966 271.933Z" fill="url(#paint5_linear_122_130)" fill-opacity="0.6"/>
<path d="M234.716 287.1H236.554V287.808H231.79V287.1H233.916V279.589L231.89 280.885L231.54 280.284L234.041 278.626H234.716V287.1Z" fill="url(#paint6_linear_122_130)" fill-opacity="0.6"/>
<path d="M233.966 293.767C234.858 293.767 235.533 294.172 235.992 294.983C236.458 295.785 236.692 296.952 236.692 298.485C236.692 300.017 236.458 301.189 235.992 302C235.533 302.81 234.858 303.216 233.966 303.216C233.082 303.216 232.407 302.81 231.94 302C231.473 301.189 231.239 300.017 231.239 298.485C231.239 296.961 231.473 295.794 231.94 294.983C232.407 294.172 233.082 293.767 233.966 293.767ZM232.127 298.485C232.127 299.572 232.219 300.422 232.402 301.037L235.179 295.117C234.887 294.698 234.483 294.489 233.966 294.489C233.39 294.489 232.94 294.818 232.615 295.478C232.29 296.128 232.127 297.13 232.127 298.485ZM233.966 302.481C234.549 302.481 235.004 302.155 235.329 301.505C235.654 300.846 235.816 299.839 235.816 298.485C235.816 297.335 235.712 296.444 235.504 295.812L232.728 301.786C233.028 302.249 233.44 302.481 233.966 302.481Z" fill="url(#paint7_linear_122_130)" fill-opacity="0.6"/>
<path d="M233.966 309.041C234.858 309.041 235.533 309.446 235.992 310.257C236.458 311.059 236.692 312.226 236.692 313.759C236.692 315.291 236.458 316.463 235.992 317.273C235.533 318.084 234.858 318.49 233.966 318.49C233.082 318.49 232.407 318.084 231.94 317.273C231.473 316.463 231.239 315.291 231.239 313.759C231.239 312.235 231.473 311.068 231.94 310.257C232.407 309.446 233.082 309.041 233.966 309.041ZM232.127 313.759C232.127 314.846 232.219 315.696 232.402 316.311L235.179 310.391C234.887 309.972 234.483 309.763 233.966 309.763C233.39 309.763 232.94 310.092 232.615 310.752C232.29 311.402 232.127 312.404 232.127 313.759ZM233.966 317.755C234.549 317.755 235.004 317.429 235.329 316.779C235.654 316.12 235.816 315.113 235.816 313.759C235.816 312.609 235.712 311.718 235.504 311.086L232.728 317.06C233.028 317.523 233.44 317.755 233.966 317.755Z" fill="url(#paint8_linear_122_130)" fill-opacity="0.6"/>
<path d="M234.716 332.922H236.554V333.63H231.79V332.922H233.916V325.411L231.89 326.707L231.54 326.106L234.041 324.448H234.716V332.922Z" fill="url(#paint9_linear_122_130)" fill-opacity="0.6"/>
<path d="M233.966 339.589C234.858 339.589 235.533 339.994 235.992 340.805C236.458 341.607 236.692 342.774 236.692 344.307C236.692 345.839 236.458 347.011 235.992 347.821C235.533 348.632 234.858 349.038 233.966 349.038C233.082 349.038 232.407 348.632 231.94 347.821C231.473 347.011 231.239 345.839 231.239 344.307C231.239 342.783 231.473 341.616 231.94 340.805C232.407 339.994 233.082 339.589 233.966 339.589ZM232.127 344.307C232.127 345.394 232.219 346.244 232.402 346.859L235.179 340.939C234.887 340.52 234.483 340.31 233.966 340.31C233.39 340.31 232.94 340.64 232.615 341.3C232.29 341.95 232.127 342.952 232.127 344.307ZM233.966 348.303C234.549 348.303 235.004 347.977 235.329 347.327C235.654 346.668 235.816 345.661 235.816 344.307C235.816 343.157 235.712 342.266 235.504 341.634L232.728 347.608C233.028 348.071 233.44 348.303 233.966 348.303Z" fill="url(#paint10_linear_122_130)" fill-opacity="0.6"/>
<path d="M234.716 363.47H236.554V364.178H231.79V363.47H233.916V355.959L231.89 357.255L231.54 356.654L234.041 354.996H234.716V363.47Z" fill="url(#paint11_linear_122_130)" fill-opacity="0.6"/>
<path d="M234.716 378.744H236.554V379.452H231.79V378.744H233.916V371.233L231.89 372.529L231.54 371.928L234.041 370.27H234.716V378.744Z" fill="url(#paint12_linear_122_130)" fill-opacity="0.6"/>
<path d="M257.19 217.397C258.082 217.397 258.758 217.802 259.216 218.613C259.683 219.415 259.916 220.582 259.916 222.115C259.916 223.647 259.683 224.819 259.216 225.63C258.758 226.44 258.082 226.846 257.19 226.846C256.306 226.846 255.631 226.44 255.164 225.63C254.697 224.819 254.464 223.647 254.464 222.115C254.464 220.591 254.697 219.424 255.164 218.613C255.631 217.802 256.306 217.397 257.19 217.397ZM255.352 222.115C255.352 223.202 255.444 224.053 255.627 224.667L258.403 218.747C258.111 218.328 257.707 218.119 257.19 218.119C256.615 218.119 256.165 218.448 255.84 219.108C255.514 219.758 255.352 220.76 255.352 222.115ZM257.19 226.111C257.774 226.111 258.228 225.785 258.553 225.135C258.878 224.476 259.041 223.469 259.041 222.115C259.041 220.965 258.937 220.074 258.728 219.442L255.952 225.416C256.252 225.879 256.665 226.111 257.19 226.111Z" fill="url(#paint13_linear_122_130)" fill-opacity="0.6"/>
<path d="M257.941 241.278H259.779V241.986H255.014V241.278H257.14V233.767L255.114 235.063L254.764 234.462L257.265 232.805H257.941V241.278Z" fill="url(#paint14_linear_122_130)" fill-opacity="0.6"/>
<path d="M257.19 247.945C258.082 247.945 258.758 248.35 259.216 249.161C259.683 249.963 259.916 251.13 259.916 252.663C259.916 254.195 259.683 255.367 259.216 256.178C258.758 256.988 258.082 257.394 257.19 257.394C256.306 257.394 255.631 256.988 255.164 256.178C254.697 255.367 254.464 254.195 254.464 252.663C254.464 251.139 254.697 249.972 255.164 249.161C255.631 248.35 256.306 247.945 257.19 247.945ZM255.352 252.663C255.352 253.75 255.444 254.6 255.627 255.215L258.403 249.295C258.111 248.876 257.707 248.667 257.19 248.667C256.615 248.667 256.165 248.996 255.84 249.656C255.514 250.306 255.352 251.308 255.352 252.663ZM257.19 256.659C257.774 256.659 258.228 256.333 258.553 255.683C258.878 255.024 259.041 254.017 259.041 252.663C259.041 251.513 258.937 250.622 258.728 249.99L255.952 255.964C256.252 256.427 256.665 256.659 257.19 256.659Z" fill="url(#paint15_linear_122_130)" fill-opacity="0.6"/>
<path d="M257.19 263.219C258.082 263.219 258.758 263.624 259.216 264.435C259.683 265.237 259.916 266.404 259.916 267.937C259.916 269.469 259.683 270.641 259.216 271.452C258.758 272.262 258.082 272.668 257.19 272.668C256.306 272.668 255.631 272.262 255.164 271.452C254.697 270.641 254.464 269.469 254.464 267.937C254.464 266.413 254.697 265.246 255.164 264.435C255.631 263.624 256.306 263.219 257.19 263.219ZM255.352 267.937C255.352 269.024 255.444 269.874 255.627 270.489L258.403 264.569C258.111 264.15 257.707 263.941 257.19 263.941C256.615 263.941 256.165 264.27 255.84 264.93C255.514 265.58 255.352 266.582 255.352 267.937ZM257.19 271.933C257.774 271.933 258.228 271.607 258.553 270.957C258.878 270.298 259.041 269.291 259.041 267.937C259.041 266.787 258.937 265.896 258.728 265.264L255.952 271.238C256.252 271.701 256.665 271.933 257.19 271.933Z" fill="url(#paint16_linear_122_130)" fill-opacity="0.6"/>
<path d="M257.941 287.1H259.779V287.808H255.014V287.1H257.14V279.589L255.114 280.885L254.764 280.284L257.265 278.626H257.941V287.1Z" fill="url(#paint17_linear_122_130)" fill-opacity="0.6"/>
<path d="M257.19 293.767C258.082 293.767 258.758 294.172 259.216 294.983C259.683 295.785 259.916 296.952 259.916 298.485C259.916 300.017 259.683 301.189 259.216 302C258.758 302.81 258.082 303.216 257.19 303.216C256.306 303.216 255.631 302.81 255.164 302C254.697 301.189 254.464 300.017 254.464 298.485C254.464 296.961 254.697 295.794 255.164 294.983C255.631 294.172 256.306 293.767 257.19 293.767ZM255.352 298.485C255.352 299.572 255.444 300.422 255.627 301.037L258.403 295.117C258.111 294.698 257.707 294.489 257.19 294.489C256.615 294.489 256.165 294.818 255.84 295.478C255.514 296.128 255.352 297.13 255.352 298.485ZM257.19 302.481C257.774 302.481 258.228 302.155 258.553 301.505C258.878 300.846 259.041 299.839 259.041 298.485C259.041 297.335 258.937 296.444 258.728 295.812L255.952 301.786C256.252 302.249 256.665 302.481 257.19 302.481Z" fill="url(#paint18_linear_122_130)" fill-opacity="0.6"/>
<path d="M257.941 317.648H259.779V318.356H255.014V317.648H257.14V310.137L255.114 311.433L254.764 310.832L257.265 309.174H257.941V317.648Z" fill="url(#paint19_linear_122_130)" fill-opacity="0.6"/>
<path d="M257.19 324.315C258.082 324.315 258.758 324.72 259.216 325.531C259.683 326.333 259.916 327.5 259.916 329.033C259.916 330.565 259.683 331.737 259.216 332.547C258.758 333.358 258.082 333.764 257.19 333.764C256.306 333.764 255.631 333.358 255.164 332.547C254.697 331.737 254.464 330.565 254.464 329.033C254.464 327.509 254.697 326.342 255.164 325.531C255.631 324.72 256.306 324.315 257.19 324.315ZM255.352 329.033C255.352 330.12 255.444 330.97 255.627 331.585L258.403 325.665C258.111 325.246 257.707 325.037 257.19 325.037C256.615 325.037 256.165 325.366 255.84 326.026C255.514 326.676 255.352 327.678 255.352 329.033ZM257.19 333.029C257.774 333.029 258.228 332.703 258.553 332.053C258.878 331.394 259.041 330.387 259.041 329.033C259.041 327.883 258.937 326.992 258.728 326.36L255.952 332.334C256.252 332.797 256.665 333.029 257.19 333.029Z" fill="url(#paint20_linear_122_130)" fill-opacity="0.6"/>
<path d="M257.19 339.589C258.082 339.589 258.758 339.994 259.216 340.805C259.683 341.607 259.916 342.774 259.916 344.307C259.916 345.839 259.683 347.011 259.216 347.821C258.758 348.632 258.082 349.038 257.19 349.038C256.306 349.038 255.631 348.632 255.164 347.821C254.697 347.011 254.464 345.839 254.464 344.307C254.464 342.783 254.697 341.616 255.164 340.805C255.631 339.994 256.306 339.589 257.19 339.589ZM255.352 344.307C255.352 345.394 255.444 346.244 255.627 346.859L258.403 340.939C258.111 340.52 257.707 340.31 257.19 340.31C256.615 340.31 256.165 340.64 255.84 341.3C255.514 341.95 255.352 342.952 255.352 344.307ZM257.19 348.303C257.774 348.303 258.228 347.977 258.553 347.327C258.878 346.668 259.041 345.661 259.041 344.307C259.041 343.157 258.937 342.266 258.728 341.634L255.952 347.608C256.252 348.071 256.665 348.303 257.19 348.303Z" fill="url(#paint21_linear_122_130)" fill-opacity="0.6"/>
<path d="M257.941 363.47H259.779V364.178H255.014V363.47H257.14V355.959L255.114 357.255L254.764 356.654L257.265 354.996H257.941V363.47Z" fill="url(#paint22_linear_122_130)" fill-opacity="0.6"/>
<path d="M257.19 370.137C258.082 370.137 258.758 370.542 259.216 371.353C259.683 372.155 259.916 373.322 259.916 374.855C259.916 376.387 259.683 377.559 259.216 378.369C258.758 379.18 258.082 379.586 257.19 379.586C256.306 379.586 255.631 379.18 255.164 378.369C254.697 377.559 254.464 376.387 254.464 374.855C254.464 373.331 254.697 372.164 255.164 371.353C255.631 370.542 256.306 370.137 257.19 370.137ZM255.352 374.855C255.352 375.942 255.444 376.792 255.627 377.407L258.403 371.487C258.111 371.068 257.707 370.858 257.19 370.858C256.615 370.858 256.165 371.188 255.84 371.847C255.514 372.498 255.352 373.5 255.352 374.855ZM257.19 378.851C257.774 378.851 258.228 378.525 258.553 377.875C258.878 377.216 259.041 376.209 259.041 374.855C259.041 373.705 258.937 372.814 258.728 372.182L255.952 378.156C256.252 378.619 256.665 378.851 257.19 378.851Z" fill="url(#paint23_linear_122_130)" fill-opacity="0.6"/>
<path d="M257.941 394.018H259.779V394.726H255.014V394.018H257.14V386.507L255.114 387.803L254.764 387.202L257.265 385.544H257.941V394.018Z" fill="url(#paint24_linear_122_130)" fill-opacity="0.6"/>
<path d="M257.941 409.292H259.779V410H255.014V409.292H257.14V401.781L255.114 403.077L254.764 402.476L257.265 400.818H257.941V409.292Z" fill="url(#paint25_linear_122_130)" fill-opacity="0.6"/>
<path d="M222.353 232.671C223.245 232.671 223.921 233.076 224.379 233.887C224.846 234.689 225.08 235.856 225.08 237.389C225.08 238.921 224.846 240.093 224.379 240.904C223.921 241.714 223.245 242.12 222.353 242.12C221.47 242.12 220.794 241.714 220.327 240.904C219.861 240.093 219.627 238.921 219.627 237.389C219.627 235.865 219.861 234.698 220.327 233.887C220.794 233.076 221.47 232.671 222.353 232.671ZM220.515 237.389C220.515 238.476 220.607 239.326 220.79 239.941L223.566 234.021C223.275 233.602 222.87 233.393 222.353 233.393C221.778 233.393 221.328 233.722 221.003 234.382C220.678 235.032 220.515 236.034 220.515 237.389ZM222.353 241.385C222.937 241.385 223.391 241.059 223.716 240.409C224.042 239.75 224.204 238.743 224.204 237.389C224.204 236.239 224.1 235.348 223.892 234.716L221.115 240.69C221.415 241.153 221.828 241.385 222.353 241.385Z" fill="url(#paint26_linear_122_130)" fill-opacity="0.6"/>
<path d="M222.353 247.945C223.245 247.945 223.921 248.35 224.379 249.161C224.846 249.963 225.08 251.13 225.08 252.663C225.08 254.195 224.846 255.367 224.379 256.178C223.921 256.988 223.245 257.394 222.353 257.394C221.47 257.394 220.794 256.988 220.327 256.178C219.861 255.367 219.627 254.195 219.627 252.663C219.627 251.139 219.861 249.972 220.327 249.161C220.794 248.35 221.47 247.945 222.353 247.945ZM220.515 252.663C220.515 253.75 220.607 254.6 220.79 255.215L223.566 249.295C223.275 248.876 222.87 248.667 222.353 248.667C221.778 248.667 221.328 248.996 221.003 249.656C220.678 250.306 220.515 251.308 220.515 252.663ZM222.353 256.659C222.937 256.659 223.391 256.333 223.716 255.683C224.042 255.024 224.204 254.017 224.204 252.663C224.204 251.513 224.1 250.622 223.892 249.99L221.115 255.964C221.415 256.427 221.828 256.659 222.353 256.659Z" fill="url(#paint27_linear_122_130)" fill-opacity="0.6"/>
<path d="M223.104 271.826H224.942V272.534H220.177V271.826H222.303V264.315L220.277 265.611L219.927 265.01L222.428 263.352H223.104V271.826Z" fill="url(#paint28_linear_122_130)" fill-opacity="0.6"/>
<path d="M222.353 278.493C223.245 278.493 223.921 278.898 224.379 279.709C224.846 280.511 225.08 281.678 225.08 283.211C225.08 284.743 224.846 285.915 224.379 286.726C223.921 287.536 223.245 287.942 222.353 287.942C221.47 287.942 220.794 287.536 220.327 286.726C219.861 285.915 219.627 284.743 219.627 283.211C219.627 281.687 219.861 280.52 220.327 279.709C220.794 278.898 221.47 278.493 222.353 278.493ZM220.515 283.211C220.515 284.298 220.607 285.148 220.79 285.763L223.566 279.843C223.275 279.424 222.87 279.215 222.353 279.215C221.778 279.215 221.328 279.544 221.003 280.204C220.678 280.854 220.515 281.856 220.515 283.211ZM222.353 287.207C222.937 287.207 223.391 286.881 223.716 286.231C224.042 285.572 224.204 284.565 224.204 283.211C224.204 282.061 224.1 281.17 223.892 280.538L221.115 286.512C221.415 286.975 221.828 287.207 222.353 287.207Z" fill="url(#paint29_linear_122_130)" fill-opacity="0.6"/>
<path d="M223.104 302.374H224.942V303.082H220.177V302.374H222.303V294.863L220.277 296.159L219.927 295.558L222.428 293.9H223.104V302.374Z" fill="url(#paint30_linear_122_130)" fill-opacity="0.6"/>
<path d="M223.104 317.648H224.942V318.356H220.177V317.648H222.303V310.137L220.277 311.433L219.927 310.832L222.428 309.174H223.104V317.648Z" fill="url(#paint31_linear_122_130)" fill-opacity="0.6"/>
<path d="M246.328 210.73H248.167V211.438H243.402V210.73H245.528V203.219L243.502 204.515L243.152 203.914L245.653 202.257H246.328V210.73Z" fill="url(#paint32_linear_122_130)" fill-opacity="0.6"/>
<path d="M245.578 217.397C246.47 217.397 247.145 217.802 247.604 218.613C248.071 219.415 248.304 220.582 248.304 222.115C248.304 223.647 248.071 224.819 247.604 225.63C247.145 226.44 246.47 226.846 245.578 226.846C244.694 226.846 244.019 226.44 243.552 225.63C243.085 224.819 242.852 223.647 242.852 222.115C242.852 220.591 243.085 219.424 243.552 218.613C244.019 217.802 244.694 217.397 245.578 217.397ZM243.74 222.115C243.74 223.202 243.831 224.053 244.015 224.667L246.791 218.747C246.499 218.328 246.095 218.119 245.578 218.119C245.003 218.119 244.552 218.448 244.227 219.108C243.902 219.758 243.74 220.76 243.74 222.115ZM245.578 226.111C246.162 226.111 246.616 225.785 246.941 225.135C247.266 224.476 247.429 223.469 247.429 222.115C247.429 220.965 247.325 220.074 247.116 219.442L244.34 225.416C244.64 225.879 245.053 226.111 245.578 226.111Z" fill="url(#paint33_linear_122_130)" fill-opacity="0.6"/>
<path d="M246.328 241.278H248.167V241.986H243.402V241.278H245.528V233.767L243.502 235.063L243.152 234.462L245.653 232.805H246.328V241.278Z" fill="url(#paint34_linear_122_130)" fill-opacity="0.6"/>
<path d="M246.328 256.552H248.167V257.26H243.402V256.552H245.528V249.041L243.502 250.337L243.152 249.736L245.653 248.078H246.328V256.552Z" fill="url(#paint35_linear_122_130)" fill-opacity="0.6"/>
<path d="M245.578 263.219C246.47 263.219 247.145 263.624 247.604 264.435C248.071 265.237 248.304 266.404 248.304 267.937C248.304 269.469 248.071 270.641 247.604 271.452C247.145 272.262 246.47 272.668 245.578 272.668C244.694 272.668 244.019 272.262 243.552 271.452C243.085 270.641 242.852 269.469 242.852 267.937C242.852 266.413 243.085 265.246 243.552 264.435C244.019 263.624 244.694 263.219 245.578 263.219ZM243.74 267.937C243.74 269.024 243.831 269.874 244.015 270.489L246.791 264.569C246.499 264.15 246.095 263.941 245.578 263.941C245.003 263.941 244.552 264.27 244.227 264.93C243.902 265.58 243.74 266.582 243.74 267.937ZM245.578 271.933C246.162 271.933 246.616 271.607 246.941 270.957C247.266 270.298 247.429 269.291 247.429 267.937C247.429 266.787 247.325 265.896 247.116 265.264L244.34 271.238C244.64 271.701 245.053 271.933 245.578 271.933Z" fill="url(#paint36_linear_122_130)" fill-opacity="0.6"/>
<path d="M246.328 287.1H248.167V287.808H243.402V287.1H245.528V279.589L243.502 280.885L243.152 280.284L245.653 278.626H246.328V287.1Z" fill="url(#paint37_linear_122_130)" fill-opacity="0.6"/>
<path d="M246.328 302.374H248.167V303.082H243.402V302.374H245.528V294.863L243.502 296.159L243.152 295.558L245.653 293.9H246.328V302.374Z" fill="url(#paint38_linear_122_130)" fill-opacity="0.6"/>
<path d="M245.578 309.041C246.47 309.041 247.145 309.446 247.604 310.257C248.071 311.059 248.304 312.226 248.304 313.759C248.304 315.291 248.071 316.463 247.604 317.273C247.145 318.084 246.47 318.49 245.578 318.49C244.694 318.49 244.019 318.084 243.552 317.273C243.085 316.463 242.852 315.291 242.852 313.759C242.852 312.235 243.085 311.068 243.552 310.257C244.019 309.446 244.694 309.041 245.578 309.041ZM243.74 313.759C243.74 314.846 243.831 315.696 244.015 316.311L246.791 310.391C246.499 309.972 246.095 309.763 245.578 309.763C245.003 309.763 244.552 310.092 244.227 310.752C243.902 311.402 243.74 312.404 243.74 313.759ZM245.578 317.755C246.162 317.755 246.616 317.429 246.941 316.779C247.266 316.12 247.429 315.113 247.429 313.759C247.429 312.609 247.325 311.718 247.116 311.086L244.34 317.06C244.64 317.523 245.053 317.755 245.578 317.755Z" fill="url(#paint39_linear_122_130)" fill-opacity="0.6"/>
<path d="M246.328 332.922H248.167V333.63H243.402V332.922H245.528V325.411L243.502 326.707L243.152 326.106L245.653 324.448H246.328V332.922Z" fill="url(#paint40_linear_122_130)" fill-opacity="0.6"/>
<path d="M245.578 339.589C246.47 339.589 247.145 339.994 247.604 340.805C248.071 341.607 248.304 342.774 248.304 344.307C248.304 345.839 248.071 347.011 247.604 347.821C247.145 348.632 246.47 349.038 245.578 349.038C244.694 349.038 244.019 348.632 243.552 347.821C243.085 347.011 242.852 345.839 242.852 344.307C242.852 342.783 243.085 341.616 243.552 340.805C244.019 339.994 244.694 339.589 245.578 339.589ZM243.74 344.307C243.74 345.394 243.831 346.244 244.015 346.859L246.791 340.939C246.499 340.52 246.095 340.31 245.578 340.31C245.003 340.31 244.552 340.64 244.227 341.3C243.902 341.95 243.74 342.952 243.74 344.307ZM245.578 348.303C246.162 348.303 246.616 347.977 246.941 347.327C247.266 346.668 247.429 345.661 247.429 344.307C247.429 343.157 247.325 342.266 247.116 341.634L244.34 347.608C244.64 348.071 245.053 348.303 245.578 348.303Z" fill="url(#paint41_linear_122_130)" fill-opacity="0.6"/>
<path d="M268.803 202.123C269.695 202.123 270.37 202.528 270.828 203.339C271.295 204.141 271.529 205.308 271.529 206.841C271.529 208.373 271.295 209.545 270.828 210.356C270.37 211.166 269.695 211.572 268.803 211.572C267.919 211.572 267.243 211.166 266.777 210.356C266.31 209.545 266.076 208.373 266.076 206.841C266.076 205.317 266.31 204.15 266.777 203.339C267.243 202.528 267.919 202.123 268.803 202.123ZM266.964 206.841C266.964 207.928 267.056 208.779 267.239 209.393L270.016 203.473C269.724 203.054 269.319 202.845 268.803 202.845C268.227 202.845 267.777 203.174 267.452 203.834C267.127 204.484 266.964 205.486 266.964 206.841ZM268.803 210.837C269.386 210.837 269.84 210.511 270.166 209.861C270.491 209.202 270.653 208.195 270.653 206.841C270.653 205.691 270.549 204.8 270.341 204.168L267.564 210.142C267.865 210.605 268.277 210.837 268.803 210.837Z" fill="url(#paint42_linear_122_130)" fill-opacity="0.6"/>
<path d="M269.553 226.004H271.391V226.712H266.627V226.004H268.752V218.493L266.727 219.789L266.376 219.188L268.878 217.531H269.553V226.004Z" fill="url(#paint43_linear_122_130)" fill-opacity="0.6"/>
<path d="M269.553 241.278H271.391V241.986H266.627V241.278H268.752V233.767L266.727 235.063L266.376 234.462L268.878 232.805H269.553V241.278Z" fill="url(#paint44_linear_122_130)" fill-opacity="0.6"/>
<path d="M268.803 247.945C269.695 247.945 270.37 248.35 270.828 249.161C271.295 249.963 271.529 251.13 271.529 252.663C271.529 254.195 271.295 255.367 270.828 256.178C270.37 256.988 269.695 257.394 268.803 257.394C267.919 257.394 267.243 256.988 266.777 256.178C266.31 255.367 266.076 254.195 266.076 252.663C266.076 251.139 266.31 249.972 266.777 249.161C267.243 248.35 267.919 247.945 268.803 247.945ZM266.964 252.663C266.964 253.75 267.056 254.6 267.239 255.215L270.016 249.295C269.724 248.876 269.319 248.667 268.803 248.667C268.227 248.667 267.777 248.996 267.452 249.656C267.127 250.306 266.964 251.308 266.964 252.663ZM268.803 256.659C269.386 256.659 269.84 256.333 270.166 255.683C270.491 255.024 270.653 254.017 270.653 252.663C270.653 251.513 270.549 250.622 270.341 249.99L267.564 255.964C267.865 256.427 268.277 256.659 268.803 256.659Z" fill="url(#paint45_linear_122_130)" fill-opacity="0.6"/>
<path d="M268.803 263.219C269.695 263.219 270.37 263.624 270.828 264.435C271.295 265.237 271.529 266.404 271.529 267.937C271.529 269.469 271.295 270.641 270.828 271.452C270.37 272.262 269.695 272.668 268.803 272.668C267.919 272.668 267.243 272.262 266.777 271.452C266.31 270.641 266.076 269.469 266.076 267.937C266.076 266.413 266.31 265.246 266.777 264.435C267.243 263.624 267.919 263.219 268.803 263.219ZM266.964 267.937C266.964 269.024 267.056 269.874 267.239 270.489L270.016 264.569C269.724 264.15 269.319 263.941 268.803 263.941C268.227 263.941 267.777 264.27 267.452 264.93C267.127 265.58 266.964 266.582 266.964 267.937ZM268.803 271.933C269.386 271.933 269.84 271.607 270.166 270.957C270.491 270.298 270.653 269.291 270.653 267.937C270.653 266.787 270.549 265.896 270.341 265.264L267.564 271.238C267.865 271.701 268.277 271.933 268.803 271.933Z" fill="url(#paint46_linear_122_130)" fill-opacity="0.6"/>
<g opacity="0.6">
<path d="M763.06 -6.07715C763.911 -6.07715 764.556 -5.68811 764.993 -4.91002C765.439 -4.14049 765.661 -3.0204 765.661 -1.54974C765.661 -0.0790746 765.439 1.0453 764.993 1.82338C764.556 2.60146 763.911 2.9905 763.06 2.9905C762.217 2.9905 761.573 2.60146 761.128 1.82338C760.682 1.0453 760.459 -0.0790746 760.459 -1.54974C760.459 -3.01185 760.682 -4.13194 761.128 -4.91002C761.573 -5.68811 762.217 -6.07715 763.06 -6.07715ZM761.307 -1.54974C761.307 -0.506592 761.394 0.309966 761.569 0.899941L764.218 -4.78177C763.939 -5.18364 763.553 -5.38457 763.06 -5.38457C762.512 -5.38457 762.082 -5.06821 761.772 -4.43548C761.462 -3.8113 761.307 -2.84939 761.307 -1.54974ZM763.06 2.2851C763.617 2.2851 764.051 1.97301 764.361 1.34883C764.671 0.716108 764.826 -0.250082 764.826 -1.54974C764.826 -2.65273 764.727 -3.50777 764.528 -4.11484L761.879 1.61817C762.166 2.06279 762.559 2.2851 763.06 2.2851Z" fill="url(#paint47_linear_122_130)"/>
<path d="M763.776 16.8402H765.53V17.52H760.984V16.8402H763.013V9.6323L761.08 10.8764L760.746 10.2992L763.132 8.70886H763.776V16.8402Z" fill="url(#paint48_linear_122_130)"/>
<path d="M763.06 23.2384C763.911 23.2384 764.556 23.6274 764.993 24.4055C765.439 25.175 765.661 26.2951 765.661 27.7658C765.661 29.2364 765.439 30.3608 764.993 31.1389C764.556 31.917 763.911 32.306 763.06 32.306C762.217 32.306 761.573 31.917 761.128 31.1389C760.682 30.3608 760.459 29.2364 760.459 27.7658C760.459 26.3037 760.682 25.1836 761.128 24.4055C761.573 23.6274 762.217 23.2384 763.06 23.2384ZM761.307 27.7658C761.307 28.8089 761.394 29.6255 761.569 30.2154L764.218 24.5337C763.939 24.1319 763.553 23.9309 763.06 23.9309C762.512 23.9309 762.082 24.2473 761.772 24.88C761.462 25.5042 761.307 26.4661 761.307 27.7658ZM763.06 31.6006C763.617 31.6006 764.051 31.2885 764.361 30.6643C764.671 30.0316 764.826 29.0654 764.826 27.7658C764.826 26.6628 764.727 25.8077 764.528 25.2007L761.879 30.9337C762.166 31.3783 762.559 31.6006 763.06 31.6006Z" fill="url(#paint49_linear_122_130)"/>
<path d="M763.776 46.1557H765.53V46.8355H760.984V46.1557H763.013V38.9478L761.08 40.1919L760.746 39.6147L763.132 38.0244H763.776V46.1557Z" fill="url(#paint50_linear_122_130)"/>
<path d="M763.776 60.8135H765.53V61.4933H760.984V60.8135H763.013V53.6055L761.08 54.8496L760.746 54.2725L763.132 52.6821H763.776V60.8135Z" fill="url(#paint51_linear_122_130)"/>
<path d="M763.06 67.2116C763.911 67.2116 764.556 67.6006 764.993 68.3787C765.439 69.1483 765.661 70.2684 765.661 71.739C765.661 73.2097 765.439 74.334 764.993 75.1121C764.556 75.8902 763.911 76.2793 763.06 76.2793C762.217 76.2793 761.573 75.8902 761.128 75.1121C760.682 74.334 760.459 73.2097 760.459 71.739C760.459 70.2769 760.682 69.1568 761.128 68.3787C761.573 67.6006 762.217 67.2116 763.06 67.2116ZM761.307 71.739C761.307 72.7822 761.394 73.5987 761.569 74.1887L764.218 68.507C763.939 68.1051 763.553 67.9042 763.06 67.9042C762.512 67.9042 762.082 68.2205 761.772 68.8533C761.462 69.4774 761.307 70.4394 761.307 71.739ZM763.06 75.5738C763.617 75.5738 764.051 75.2618 764.361 74.6376C764.671 74.0049 764.826 73.0387 764.826 71.739C764.826 70.636 764.727 69.781 764.528 69.1739L761.879 74.9069C762.166 75.3515 762.559 75.5738 763.06 75.5738Z" fill="url(#paint52_linear_122_130)"/>
<path d="M763.776 90.129H765.53V90.8088H760.984V90.129H763.013V82.921L761.08 84.1651L760.746 83.588L763.132 81.9976H763.776V90.129Z" fill="url(#paint53_linear_122_130)"/>
<path d="M763.06 96.5271C763.911 96.5271 764.556 96.9162 764.993 97.6942C765.439 98.4638 765.661 99.5839 765.661 101.055C765.661 102.525 765.439 103.65 764.993 104.428C764.556 105.206 763.911 105.595 763.06 105.595C762.217 105.595 761.573 105.206 761.128 104.428C760.682 103.65 760.459 102.525 760.459 101.055C760.459 99.5924 760.682 98.4723 761.128 97.6942C761.573 96.9162 762.217 96.5271 763.06 96.5271ZM761.307 101.055C761.307 102.098 761.394 102.914 761.569 103.504L764.218 97.8225C763.939 97.4206 763.553 97.2197 763.06 97.2197C762.512 97.2197 762.082 97.536 761.772 98.1688C761.462 98.7929 761.307 99.7549 761.307 101.055ZM763.06 104.889C763.617 104.889 764.051 104.577 764.361 103.953C764.671 103.32 764.826 102.354 764.826 101.055C764.826 99.9515 764.727 99.0965 764.528 98.4894L761.879 104.222C762.166 104.667 762.559 104.889 763.06 104.889Z" fill="url(#paint54_linear_122_130)"/>
<path d="M763.06 111.185C763.911 111.185 764.556 111.574 764.993 112.352C765.439 113.122 765.661 114.242 765.661 115.712C765.661 117.183 765.439 118.307 764.993 119.085C764.556 119.863 763.911 120.253 763.06 120.253C762.217 120.253 761.573 119.863 761.128 119.085C760.682 118.307 760.459 117.183 760.459 115.712C760.459 114.25 760.682 113.13 761.128 112.352C761.573 111.574 762.217 111.185 763.06 111.185ZM761.307 115.712C761.307 116.755 761.394 117.572 761.569 118.162L764.218 112.48C763.939 112.078 763.553 111.877 763.06 111.877C762.512 111.877 762.082 112.194 761.772 112.827C761.462 113.451 761.307 114.413 761.307 115.712ZM763.06 119.547C763.617 119.547 764.051 119.235 764.361 118.611C764.671 117.978 764.826 117.012 764.826 115.712C764.826 114.609 764.727 113.754 764.528 113.147L761.879 118.88C762.166 119.325 762.559 119.547 763.06 119.547Z" fill="url(#paint55_linear_122_130)"/>
<path d="M763.776 134.102H765.53V134.782H760.984V134.102H763.013V126.894L761.08 128.138L760.746 127.561L763.132 125.971H763.776V134.102Z" fill="url(#paint56_linear_122_130)"/>
<path d="M763.06 140.5C763.911 140.5 764.556 140.889 764.993 141.667C765.439 142.437 765.661 143.557 765.661 145.028C765.661 146.498 765.439 147.623 764.993 148.401C764.556 149.179 763.911 149.568 763.06 149.568C762.217 149.568 761.573 149.179 761.128 148.401C760.682 147.623 760.459 146.498 760.459 145.028C760.459 143.566 760.682 142.446 761.128 141.667C761.573 140.889 762.217 140.5 763.06 140.5ZM761.307 145.028C761.307 146.071 761.394 146.887 761.569 147.477L764.218 141.796C763.939 141.394 763.553 141.193 763.06 141.193C762.512 141.193 762.082 141.509 761.772 142.142C761.462 142.766 761.307 143.728 761.307 145.028ZM763.06 148.863C763.617 148.863 764.051 148.551 764.361 147.926C764.671 147.294 764.826 146.327 764.826 145.028C764.826 143.925 764.727 143.07 764.528 142.463L761.879 148.196C762.166 148.64 762.559 148.863 763.06 148.863Z" fill="url(#paint57_linear_122_130)"/>
<path d="M763.776 163.418H765.53V164.097H760.984V163.418H763.013V156.21L761.08 157.454L760.746 156.877L763.132 155.286H763.776V163.418Z" fill="url(#paint58_linear_122_130)"/>
<path d="M763.776 178.076H765.53V178.755H760.984V178.076H763.013V170.868L761.08 172.112L760.746 171.534L763.132 169.944H763.776V178.076Z" fill="url(#paint59_linear_122_130)"/>
<path d="M785.217 23.2384C786.068 23.2384 786.712 23.6274 787.15 24.4055C787.595 25.175 787.818 26.2951 787.818 27.7658C787.818 29.2364 787.595 30.3608 787.15 31.1389C786.712 31.917 786.068 32.306 785.217 32.306C784.374 32.306 783.73 31.917 783.284 31.1389C782.839 30.3608 782.616 29.2364 782.616 27.7658C782.616 26.3037 782.839 25.1836 783.284 24.4055C783.73 23.6274 784.374 23.2384 785.217 23.2384ZM783.463 27.7658C783.463 28.8089 783.551 29.6255 783.726 30.2154L786.374 24.5337C786.096 24.1319 785.71 23.9309 785.217 23.9309C784.668 23.9309 784.239 24.2473 783.929 24.88C783.618 25.5042 783.463 26.4661 783.463 27.7658ZM785.217 31.6006C785.774 31.6006 786.207 31.2885 786.518 30.6643C786.828 30.0316 786.983 29.0654 786.983 27.7658C786.983 26.6628 786.883 25.8077 786.685 25.2007L784.036 30.9337C784.322 31.3783 784.716 31.6006 785.217 31.6006Z" fill="url(#paint60_linear_122_130)"/>
<path d="M785.933 46.1557H787.687V46.8355H783.141V46.1557H785.169V38.9478L783.237 40.1919L782.903 39.6147L785.289 38.0244H785.933V46.1557Z" fill="url(#paint61_linear_122_130)"/>
<path d="M785.217 52.5539C786.068 52.5539 786.712 52.9429 787.15 53.721C787.595 54.4905 787.818 55.6106 787.818 57.0813C787.818 58.5519 787.595 59.6763 787.15 60.4544C786.712 61.2325 786.068 61.6215 785.217 61.6215C784.374 61.6215 783.73 61.2325 783.284 60.4544C782.839 59.6763 782.616 58.5519 782.616 57.0813C782.616 55.6192 782.839 54.4991 783.284 53.721C783.73 52.9429 784.374 52.5539 785.217 52.5539ZM783.463 57.0813C783.463 58.1244 783.551 58.941 783.726 59.5309L786.374 53.8492C786.096 53.4474 785.71 53.2464 785.217 53.2464C784.668 53.2464 784.239 53.5628 783.929 54.1955C783.618 54.8197 783.463 55.7816 783.463 57.0813ZM785.217 60.9161C785.774 60.9161 786.207 60.604 786.518 59.9798C786.828 59.3471 786.983 58.3809 786.983 57.0813C786.983 55.9783 786.883 55.1232 786.685 54.5162L784.036 60.2492C784.322 60.6938 784.716 60.9161 785.217 60.9161Z" fill="url(#paint62_linear_122_130)"/>
<path d="M785.217 67.2116C786.068 67.2116 786.712 67.6006 787.15 68.3787C787.595 69.1483 787.818 70.2684 787.818 71.739C787.818 73.2097 787.595 74.334 787.15 75.1121C786.712 75.8902 786.068 76.2793 785.217 76.2793C784.374 76.2793 783.73 75.8902 783.284 75.1121C782.839 74.334 782.616 73.2097 782.616 71.739C782.616 70.2769 782.839 69.1568 783.284 68.3787C783.73 67.6006 784.374 67.2116 785.217 67.2116ZM783.463 71.739C783.463 72.7822 783.551 73.5987 783.726 74.1887L786.374 68.507C786.096 68.1051 785.71 67.9042 785.217 67.9042C784.668 67.9042 784.239 68.2205 783.929 68.8533C783.618 69.4774 783.463 70.4394 783.463 71.739ZM785.217 75.5738C785.774 75.5738 786.207 75.2618 786.518 74.6376C786.828 74.0049 786.983 73.0387 786.983 71.739C786.983 70.636 786.883 69.781 786.685 69.1739L784.036 74.9069C784.322 75.3515 784.716 75.5738 785.217 75.5738Z" fill="url(#paint63_linear_122_130)"/>
<path d="M785.933 90.129H787.687V90.8088H783.141V90.129H785.169V82.921L783.237 84.1651L782.903 83.588L785.289 81.9976H785.933V90.129Z" fill="url(#paint64_linear_122_130)"/>
<path d="M785.217 96.5271C786.068 96.5271 786.712 96.9162 787.15 97.6942C787.595 98.4638 787.818 99.5839 787.818 101.055C787.818 102.525 787.595 103.65 787.15 104.428C786.712 105.206 786.068 105.595 785.217 105.595C784.374 105.595 783.73 105.206 783.284 104.428C782.839 103.65 782.616 102.525 782.616 101.055C782.616 99.5924 782.839 98.4723 783.284 97.6942C783.73 96.9162 784.374 96.5271 785.217 96.5271ZM783.463 101.055C783.463 102.098 783.551 102.914 783.726 103.504L786.374 97.8225C786.096 97.4206 785.71 97.2197 785.217 97.2197C784.668 97.2197 784.239 97.536 783.929 98.1688C783.618 98.7929 783.463 99.7549 783.463 101.055ZM785.217 104.889C785.774 104.889 786.207 104.577 786.518 103.953C786.828 103.32 786.983 102.354 786.983 101.055C786.983 99.9515 786.883 99.0965 786.685 98.4894L784.036 104.222C784.322 104.667 784.716 104.889 785.217 104.889Z" fill="url(#paint65_linear_122_130)"/>
<path d="M785.933 119.444H787.687V120.124H783.141V119.444H785.169V112.237L783.237 113.481L782.903 112.903L785.289 111.313H785.933V119.444Z" fill="url(#paint66_linear_122_130)"/>
<path d="M785.217 125.843C786.068 125.843 786.712 126.232 787.15 127.01C787.595 127.779 787.818 128.899 787.818 130.37C787.818 131.841 787.595 132.965 787.15 133.743C786.712 134.521 786.068 134.91 785.217 134.91C784.374 134.91 783.73 134.521 783.284 133.743C782.839 132.965 782.616 131.841 782.616 130.37C782.616 128.908 782.839 127.788 783.284 127.01C783.73 126.232 784.374 125.843 785.217 125.843ZM783.463 130.37C783.463 131.413 783.551 132.23 783.726 132.82L786.374 127.138C786.096 126.736 785.71 126.535 785.217 126.535C784.668 126.535 784.239 126.852 783.929 127.484C783.618 128.108 783.463 129.07 783.463 130.37ZM785.217 134.205C785.774 134.205 786.207 133.893 786.518 133.269C786.828 132.636 786.983 131.67 786.983 130.37C786.983 129.267 786.883 128.412 786.685 127.805L784.036 133.538C784.322 133.983 784.716 134.205 785.217 134.205Z" fill="url(#paint67_linear_122_130)"/>
<path d="M785.217 140.5C786.068 140.5 786.712 140.889 787.15 141.667C787.595 142.437 787.818 143.557 787.818 145.028C787.818 146.498 787.595 147.623 787.15 148.401C786.712 149.179 786.068 149.568 785.217 149.568C784.374 149.568 783.73 149.179 783.284 148.401C782.839 147.623 782.616 146.498 782.616 145.028C782.616 143.566 782.839 142.446 783.284 141.667C783.73 140.889 784.374 140.5 785.217 140.5ZM783.463 145.028C783.463 146.071 783.551 146.887 783.726 147.477L786.374 141.796C786.096 141.394 785.71 141.193 785.217 141.193C784.668 141.193 784.239 141.509 783.929 142.142C783.618 142.766 783.463 143.728 783.463 145.028ZM785.217 148.863C785.774 148.863 786.207 148.551 786.518 147.926C786.828 147.294 786.983 146.327 786.983 145.028C786.983 143.925 786.883 143.07 786.685 142.463L784.036 148.196C784.322 148.64 784.716 148.863 785.217 148.863Z" fill="url(#paint68_linear_122_130)"/>
<path d="M785.933 163.418H787.687V164.097H783.141V163.418H785.169V156.21L783.237 157.454L782.903 156.877L785.289 155.286H785.933V163.418Z" fill="url(#paint69_linear_122_130)"/>
<path d="M785.217 169.816C786.068 169.816 786.712 170.205 787.15 170.983C787.595 171.753 787.818 172.873 787.818 174.343C787.818 175.814 787.595 176.938 787.15 177.716C786.712 178.494 786.068 178.883 785.217 178.883C784.374 178.883 783.73 178.494 783.284 177.716C782.839 176.938 782.616 175.814 782.616 174.343C782.616 172.881 782.839 171.761 783.284 170.983C783.73 170.205 784.374 169.816 785.217 169.816ZM783.463 174.343C783.463 175.386 783.551 176.203 783.726 176.793L786.374 171.111C786.096 170.709 785.71 170.508 785.217 170.508C784.668 170.508 784.239 170.825 783.929 171.458C783.618 172.082 783.463 173.044 783.463 174.343ZM785.217 178.178C785.774 178.178 786.207 177.866 786.518 177.242C786.828 176.609 786.983 175.643 786.983 174.343C786.983 173.24 786.883 172.385 786.685 171.778L784.036 177.511C784.322 177.956 784.716 178.178 785.217 178.178Z" fill="url(#paint70_linear_122_130)"/>
<path d="M785.933 192.733H787.687V193.413H783.141V192.733H785.169V185.525L783.237 186.769L782.903 186.192L785.289 184.602H785.933V192.733Z" fill="url(#paint71_linear_122_130)"/>
<path d="M785.933 207.391H787.687V208.071H783.141V207.391H785.169V200.183L783.237 201.427L782.903 200.85L785.289 199.26H785.933V207.391Z" fill="url(#paint72_linear_122_130)"/>
<path d="M751.982 37.8961C752.833 37.8961 753.477 38.2851 753.915 39.0632C754.36 39.8328 754.583 40.9529 754.583 42.4235C754.583 43.8942 754.36 45.0185 753.915 45.7966C753.477 46.5747 752.833 46.9638 751.982 46.9638C751.139 46.9638 750.495 46.5747 750.049 45.7966C749.604 45.0185 749.381 43.8942 749.381 42.4235C749.381 40.9614 749.604 39.8413 750.049 39.0632C750.495 38.2851 751.139 37.8961 751.982 37.8961ZM750.228 42.4235C750.228 43.4667 750.316 44.2832 750.491 44.8732L753.139 39.1915C752.861 38.7896 752.475 38.5887 751.982 38.5887C751.433 38.5887 751.004 38.905 750.693 39.5378C750.383 40.1619 750.228 41.1239 750.228 42.4235ZM751.982 46.2583C752.539 46.2583 752.972 45.9463 753.282 45.3221C753.593 44.6894 753.748 43.7232 753.748 42.4235C753.748 41.3205 753.648 40.4655 753.449 39.8584L750.801 45.5914C751.087 46.036 751.481 46.2583 751.982 46.2583Z" fill="url(#paint73_linear_122_130)"/>
<path d="M751.982 52.5539C752.833 52.5539 753.477 52.9429 753.915 53.721C754.36 54.4905 754.583 55.6106 754.583 57.0813C754.583 58.5519 754.36 59.6763 753.915 60.4544C753.477 61.2325 752.833 61.6215 751.982 61.6215C751.139 61.6215 750.495 61.2325 750.049 60.4544C749.604 59.6763 749.381 58.5519 749.381 57.0813C749.381 55.6192 749.604 54.4991 750.049 53.721C750.495 52.9429 751.139 52.5539 751.982 52.5539ZM750.228 57.0813C750.228 58.1244 750.316 58.941 750.491 59.5309L753.139 53.8492C752.861 53.4474 752.475 53.2464 751.982 53.2464C751.433 53.2464 751.004 53.5628 750.693 54.1955C750.383 54.8197 750.228 55.7816 750.228 57.0813ZM751.982 60.9161C752.539 60.9161 752.972 60.604 753.282 59.9798C753.593 59.3471 753.748 58.3809 753.748 57.0813C753.748 55.9783 753.648 55.1232 753.449 54.5162L750.801 60.2492C751.087 60.6938 751.481 60.9161 751.982 60.9161Z" fill="url(#paint74_linear_122_130)"/>
<path d="M752.698 75.4712H754.452V76.151H749.906V75.4712H751.934V68.2633L750.001 69.5074L749.667 68.9302L752.054 67.3399H752.698V75.4712Z" fill="url(#paint75_linear_122_130)"/>
<path d="M751.982 81.8694C752.833 81.8694 753.477 82.2584 753.915 83.0365C754.36 83.806 754.583 84.9261 754.583 86.3968C754.583 87.8674 754.36 88.9918 753.915 89.7699C753.477 90.548 752.833 90.937 751.982 90.937C751.139 90.937 750.495 90.548 750.049 89.7699C749.604 88.9918 749.381 87.8674 749.381 86.3968C749.381 84.9347 749.604 83.8146 750.049 83.0365C750.495 82.2584 751.139 81.8694 751.982 81.8694ZM750.228 86.3968C750.228 87.4399 750.316 88.2565 750.491 88.8464L753.139 83.1647C752.861 82.7629 752.475 82.5619 751.982 82.5619C751.433 82.5619 751.004 82.8783 750.693 83.511C750.383 84.1352 750.228 85.0971 750.228 86.3968ZM751.982 90.2316C752.539 90.2316 752.972 89.9195 753.282 89.2953C753.593 88.6626 753.748 87.6964 753.748 86.3968C753.748 85.2938 753.648 84.4387 753.449 83.8317L750.801 89.5647C751.087 90.0093 751.481 90.2316 751.982 90.2316Z" fill="url(#paint76_linear_122_130)"/>
<path d="M752.698 104.787H754.452V105.466H749.906V104.787H751.934V97.5788L750.001 98.8229L749.667 98.2457L752.054 96.6554H752.698V104.787Z" fill="url(#paint77_linear_122_130)"/>
<path d="M752.698 119.444H754.452V120.124H749.906V119.444H751.934V112.237L750.001 113.481L749.667 112.903L752.054 111.313H752.698V119.444Z" fill="url(#paint78_linear_122_130)"/>
<path d="M774.855 16.8402H776.608V17.52H772.063V16.8402H774.091V9.6323L772.158 10.8764L771.824 10.2992L774.21 8.70886H774.855V16.8402Z" fill="url(#paint79_linear_122_130)"/>
<path d="M774.139 23.2384C774.99 23.2384 775.634 23.6274 776.072 24.4055C776.517 25.175 776.74 26.2951 776.74 27.7658C776.74 29.2364 776.517 30.3608 776.072 31.1389C775.634 31.917 774.99 32.306 774.139 32.306C773.296 32.306 772.651 31.917 772.206 31.1389C771.761 30.3608 771.538 29.2364 771.538 27.7658C771.538 26.3037 771.761 25.1836 772.206 24.4055C772.651 23.6274 773.296 23.2384 774.139 23.2384ZM772.385 27.7658C772.385 28.8089 772.472 29.6255 772.647 30.2154L775.296 24.5337C775.018 24.1319 774.632 23.9309 774.139 23.9309C773.59 23.9309 773.16 24.2473 772.85 24.88C772.54 25.5042 772.385 26.4661 772.385 27.7658ZM774.139 31.6006C774.696 31.6006 775.129 31.2885 775.439 30.6643C775.749 30.0316 775.904 29.0654 775.904 27.7658C775.904 26.6628 775.805 25.8077 775.606 25.2007L772.958 30.9337C773.244 31.3783 773.638 31.6006 774.139 31.6006Z" fill="url(#paint80_linear_122_130)"/>
<path d="M774.855 46.1557H776.608V46.8355H772.063V46.1557H774.091V38.9478L772.158 40.1919L771.824 39.6147L774.21 38.0244H774.855V46.1557Z" fill="url(#paint81_linear_122_130)"/>
<path d="M774.855 60.8135H776.608V61.4933H772.063V60.8135H774.091V53.6055L772.158 54.8496L771.824 54.2725L774.21 52.6821H774.855V60.8135Z" fill="url(#paint82_linear_122_130)"/>
<path d="M774.139 67.2116C774.99 67.2116 775.634 67.6006 776.072 68.3787C776.517 69.1483 776.74 70.2684 776.74 71.739C776.74 73.2097 776.517 74.334 776.072 75.1121C775.634 75.8902 774.99 76.2793 774.139 76.2793C773.296 76.2793 772.651 75.8902 772.206 75.1121C771.761 74.334 771.538 73.2097 771.538 71.739C771.538 70.2769 771.761 69.1568 772.206 68.3787C772.651 67.6006 773.296 67.2116 774.139 67.2116ZM772.385 71.739C772.385 72.7822 772.472 73.5987 772.647 74.1887L775.296 68.507C775.018 68.1051 774.632 67.9042 774.139 67.9042C773.59 67.9042 773.16 68.2205 772.85 68.8533C772.54 69.4774 772.385 70.4394 772.385 71.739ZM774.139 75.5738C774.696 75.5738 775.129 75.2618 775.439 74.6376C775.749 74.0049 775.904 73.0387 775.904 71.739C775.904 70.636 775.805 69.781 775.606 69.1739L772.958 74.9069C773.244 75.3515 773.638 75.5738 774.139 75.5738Z" fill="url(#paint83_linear_122_130)"/>
<path d="M774.855 90.129H776.608V90.8088H772.063V90.129H774.091V82.921L772.158 84.1651L771.824 83.588L774.21 81.9976H774.855V90.129Z" fill="url(#paint84_linear_122_130)"/>
<path d="M774.855 104.787H776.608V105.466H772.063V104.787H774.091V97.5788L772.158 98.8229L771.824 98.2457L774.21 96.6554H774.855V104.787Z" fill="url(#paint85_linear_122_130)"/>
<path d="M774.139 111.185C774.99 111.185 775.634 111.574 776.072 112.352C776.517 113.122 776.74 114.242 776.74 115.712C776.74 117.183 776.517 118.307 776.072 119.085C775.634 119.863 774.99 120.253 774.139 120.253C773.296 120.253 772.651 119.863 772.206 119.085C771.761 118.307 771.538 117.183 771.538 115.712C771.538 114.25 771.761 113.13 772.206 112.352C772.651 111.574 773.296 111.185 774.139 111.185ZM772.385 115.712C772.385 116.755 772.472 117.572 772.647 118.162L775.296 112.48C775.018 112.078 774.632 111.877 774.139 111.877C773.59 111.877 773.16 112.194 772.85 112.827C772.54 113.451 772.385 114.413 772.385 115.712ZM774.139 119.547C774.696 119.547 775.129 119.235 775.439 118.611C775.749 117.978 775.904 117.012 775.904 115.712C775.904 114.609 775.805 113.754 775.606 113.147L772.958 118.88C773.244 119.325 773.638 119.547 774.139 119.547Z" fill="url(#paint86_linear_122_130)"/>
<path d="M774.855 134.102H776.608V134.782H772.063V134.102H774.091V126.894L772.158 128.138L771.824 127.561L774.21 125.971H774.855V134.102Z" fill="url(#paint87_linear_122_130)"/>
<path d="M774.139 140.5C774.99 140.5 775.634 140.889 776.072 141.667C776.517 142.437 776.74 143.557 776.74 145.028C776.74 146.498 776.517 147.623 776.072 148.401C775.634 149.179 774.99 149.568 774.139 149.568C773.296 149.568 772.651 149.179 772.206 148.401C771.761 147.623 771.538 146.498 771.538 145.028C771.538 143.566 771.761 142.446 772.206 141.667C772.651 140.889 773.296 140.5 774.139 140.5ZM772.385 145.028C772.385 146.071 772.472 146.887 772.647 147.477L775.296 141.796C775.018 141.394 774.632 141.193 774.139 141.193C773.59 141.193 773.16 141.509 772.85 142.142C772.54 142.766 772.385 143.728 772.385 145.028ZM774.139 148.863C774.696 148.863 775.129 148.551 775.439 147.926C775.749 147.294 775.904 146.327 775.904 145.028C775.904 143.925 775.805 143.07 775.606 142.463L772.958 148.196C773.244 148.64 773.638 148.863 774.139 148.863Z" fill="url(#paint88_linear_122_130)"/>
<path d="M796.296 8.5806C797.147 8.5806 797.791 8.96964 798.228 9.74773C798.674 10.5173 798.896 11.6374 798.896 13.108C798.896 14.5787 798.674 15.703 798.228 16.4811C797.791 17.2592 797.147 17.6483 796.296 17.6483C795.452 17.6483 794.808 17.2592 794.363 16.4811C793.917 15.703 793.695 14.5787 793.695 13.108C793.695 11.6459 793.917 10.5258 794.363 9.74773C794.808 8.96964 795.452 8.5806 796.296 8.5806ZM794.542 13.108C794.542 14.1512 794.629 14.9677 794.804 15.5577L797.453 9.87598C797.174 9.47411 796.789 9.27318 796.296 9.27318C795.747 9.27318 795.317 9.58954 795.007 10.2223C794.697 10.8464 794.542 11.8084 794.542 13.108ZM796.296 16.9428C796.852 16.9428 797.286 16.6308 797.596 16.0066C797.906 15.3739 798.061 14.4077 798.061 13.108C798.061 12.005 797.962 11.15 797.763 10.5429L795.114 16.2759C795.401 16.7205 795.794 16.9428 796.296 16.9428Z" fill="url(#paint89_linear_122_130)"/>
<path d="M797.011 31.498H798.765V32.1777H794.22V31.498H796.248V24.29L794.315 25.5341L793.981 24.957L796.367 23.3666H797.011V31.498Z" fill="url(#paint90_linear_122_130)"/>
<path d="M797.011 46.1557H798.765V46.8355H794.22V46.1557H796.248V38.9478L794.315 40.1919L793.981 39.6147L796.367 38.0244H797.011V46.1557Z" fill="url(#paint91_linear_122_130)"/>
<path d="M796.296 52.5539C797.147 52.5539 797.791 52.9429 798.228 53.721C798.674 54.4905 798.896 55.6106 798.896 57.0813C798.896 58.5519 798.674 59.6763 798.228 60.4544C797.791 61.2325 797.147 61.6215 796.296 61.6215C795.452 61.6215 794.808 61.2325 794.363 60.4544C793.917 59.6763 793.695 58.5519 793.695 57.0813C793.695 55.6192 793.917 54.4991 794.363 53.721C794.808 52.9429 795.452 52.5539 796.296 52.5539ZM794.542 57.0813C794.542 58.1244 794.629 58.941 794.804 59.5309L797.453 53.8492C797.174 53.4474 796.789 53.2464 796.296 53.2464C795.747 53.2464 795.317 53.5628 795.007 54.1955C794.697 54.8197 794.542 55.7816 794.542 57.0813ZM796.296 60.9161C796.852 60.9161 797.286 60.604 797.596 59.9798C797.906 59.3471 798.061 58.3809 798.061 57.0813C798.061 55.9783 797.962 55.1232 797.763 54.5162L795.114 60.2492C795.401 60.6938 795.794 60.9161 796.296 60.9161Z" fill="url(#paint92_linear_122_130)"/>
<path d="M796.296 67.2116C797.147 67.2116 797.791 67.6006 798.228 68.3787C798.674 69.1483 798.896 70.2684 798.896 71.739C798.896 73.2097 798.674 74.334 798.228 75.1121C797.791 75.8902 797.147 76.2793 796.296 76.2793C795.452 76.2793 794.808 75.8902 794.363 75.1121C793.917 74.334 793.695 73.2097 793.695 71.739C793.695 70.2769 793.917 69.1568 794.363 68.3787C794.808 67.6006 795.452 67.2116 796.296 67.2116ZM794.542 71.739C794.542 72.7822 794.629 73.5987 794.804 74.1887L797.453 68.507C797.174 68.1051 796.789 67.9042 796.296 67.9042C795.747 67.9042 795.317 68.2205 795.007 68.8533C794.697 69.4774 794.542 70.4394 794.542 71.739ZM796.296 75.5738C796.852 75.5738 797.286 75.2618 797.596 74.6376C797.906 74.0049 798.061 73.0387 798.061 71.739C798.061 70.636 797.962 69.781 797.763 69.1739L795.114 74.9069C795.401 75.3515 795.794 75.5738 796.296 75.5738Z" fill="url(#paint93_linear_122_130)"/>
</g>
</g>
<defs>
<filter id="filter0_f_122_130" x="-280.19" y="-590.19" width="1600.38" height="1250.54" filterUnits="userSpaceOnUse" color-interpolation-filters="sRGB">
<feFlood flood-opacity="0" result="BackgroundImageFix"/>
<feBlend mode="normal" in="SourceGraphic" in2="BackgroundImageFix" result="shape"/>
<feGaussianBlur stdDeviation="200.095" result="effect1_foregroundBlur_122_130"/>
</filter>
<linearGradient id="paint0_linear_122_130" x1="245.578" y1="186.849" x2="245.578" y2="387.094" gradientUnits="userSpaceOnUse">
<stop stop-color="#F7DD43"/>
<stop offset="1" stop-color="#F7DD43" stop-opacity="0"/>
</linearGradient>
<linearGradient id="paint1_linear_122_130" x1="245.578" y1="186.849" x2="245.578" y2="387.094" gradientUnits="userSpaceOnUse">
<stop stop-color="#F7DD43"/>
<stop offset="1" stop-color="#F7DD43" stop-opacity="0"/>
</linearGradient>
<linearGradient id="paint2_linear_122_130" x1="245.578" y1="186.849" x2="245.578" y2="387.094" gradientUnits="userSpaceOnUse">
<stop stop-color="#F7DD43"/>
<stop offset="1" stop-color="#F7DD43" stop-opacity="0"/>
</linearGradient>
<linearGradient id="paint3_linear_122_130" x1="245.578" y1="186.849" x2="245.578" y2="387.094" gradientUnits="userSpaceOnUse">
<stop stop-color="#F7DD43"/>
<stop offset="1" stop-color="#F7DD43" stop-opacity="0"/>
</linearGradient>
<linearGradient id="paint4_linear_122_130" x1="245.578" y1="186.849" x2="245.578" y2="387.094" gradientUnits="userSpaceOnUse">
<stop stop-color="#F7DD43"/>
<stop offset="1" stop-color="#F7DD43" stop-opacity="0"/>
</linearGradient>
<linearGradient id="paint5_linear_122_130" x1="245.578" y1="186.849" x2="245.578" y2="387.094" gradientUnits="userSpaceOnUse">
<stop stop-color="#F7DD43"/>
<stop offset="1" stop-color="#F7DD43" stop-opacity="0"/>
</linearGradient>
<linearGradient id="paint6_linear_122_130" x1="245.578" y1="186.849" x2="245.578" y2="387.094" gradientUnits="userSpaceOnUse">
<stop stop-color="#F7DD43"/>
<stop offset="1" stop-color="#F7DD43" stop-opacity="0"/>
</linearGradient>
<linearGradient id="paint7_linear_122_130" x1="245.578" y1="186.849" x2="245.578" y2="387.094" gradientUnits="userSpaceOnUse">
<stop stop-color="#F7DD43"/>
<stop offset="1" stop-color="#F7DD43" stop-opacity="0"/>
</linearGradient>
<linearGradient id="paint8_linear_122_130" x1="245.578" y1="186.849" x2="245.578" y2="387.094" gradientUnits="userSpaceOnUse">
<stop stop-color="#F7DD43"/>
<stop offset="1" stop-color="#F7DD43" stop-opacity="0"/>
</linearGradient>
<linearGradient id="paint9_linear_122_130" x1="245.578" y1="186.849" x2="245.578" y2="387.094" gradientUnits="userSpaceOnUse">
<stop stop-color="#F7DD43"/>
<stop offset="1" stop-color="#F7DD43" stop-opacity="0"/>
</linearGradient>
<linearGradient id="paint10_linear_122_130" x1="245.578" y1="186.849" x2="245.578" y2="387.094" gradientUnits="userSpaceOnUse">
<stop stop-color="#F7DD43"/>
<stop offset="1" stop-color="#F7DD43" stop-opacity="0"/>
</linearGradient>
<linearGradient id="paint11_linear_122_130" x1="245.578" y1="186.849" x2="245.578" y2="387.094" gradientUnits="userSpaceOnUse">
<stop stop-color="#F7DD43"/>
<stop offset="1" stop-color="#F7DD43" stop-opacity="0"/>
</linearGradient>
<linearGradient id="paint12_linear_122_130" x1="245.578" y1="186.849" x2="245.578" y2="387.094" gradientUnits="userSpaceOnUse">
<stop stop-color="#F7DD43"/>
<stop offset="1" stop-color="#F7DD43" stop-opacity="0"/>
</linearGradient>
<linearGradient id="paint13_linear_122_130" x1="245.578" y1="186.849" x2="245.578" y2="387.094" gradientUnits="userSpaceOnUse">
<stop stop-color="#F7DD43"/>
<stop offset="1" stop-color="#F7DD43" stop-opacity="0"/>
</linearGradient>
<linearGradient id="paint14_linear_122_130" x1="245.578" y1="186.849" x2="245.578" y2="387.094" gradientUnits="userSpaceOnUse">
<stop stop-color="#F7DD43"/>
<stop offset="1" stop-color="#F7DD43" stop-opacity="0"/>
</linearGradient>
<linearGradient id="paint15_linear_122_130" x1="245.578" y1="186.849" x2="245.578" y2="387.094" gradientUnits="userSpaceOnUse">
<stop stop-color="#F7DD43"/>
<stop offset="1" stop-color="#F7DD43" stop-opacity="0"/>
</linearGradient>
<linearGradient id="paint16_linear_122_130" x1="245.578" y1="186.849" x2="245.578" y2="387.094" gradientUnits="userSpaceOnUse">
<stop stop-color="#F7DD43"/>
<stop offset="1" stop-color="#F7DD43" stop-opacity="0"/>
</linearGradient>
<linearGradient id="paint17_linear_122_130" x1="245.578" y1="186.849" x2="245.578" y2="387.094" gradientUnits="userSpaceOnUse">
<stop stop-color="#F7DD43"/>
<stop offset="1" stop-color="#F7DD43" stop-opacity="0"/>
</linearGradient>
<linearGradient id="paint18_linear_122_130" x1="245.578" y1="186.849" x2="245.578" y2="387.094" gradientUnits="userSpaceOnUse">
<stop stop-color="#F7DD43"/>
<stop offset="1" stop-color="#F7DD43" stop-opacity="0"/>
</linearGradient>
<linearGradient id="paint19_linear_122_130" x1="245.578" y1="186.849" x2="245.578" y2="387.094" gradientUnits="userSpaceOnUse">
<stop stop-color="#F7DD43"/>
<stop offset="1" stop-color="#F7DD43" stop-opacity="0"/>
</linearGradient>
<linearGradient id="paint20_linear_122_130" x1="245.578" y1="186.849" x2="245.578" y2="387.094" gradientUnits="userSpaceOnUse">
<stop stop-color="#F7DD43"/>
<stop offset="1" stop-color="#F7DD43" stop-opacity="0"/>
</linearGradient>
<linearGradient id="paint21_linear_122_130" x1="245.578" y1="186.849" x2="245.578" y2="387.094" gradientUnits="userSpaceOnUse">
<stop stop-color="#F7DD43"/>
<stop offset="1" stop-color="#F7DD43" stop-opacity="0"/>
</linearGradient>
<linearGradient id="paint22_linear_122_130" x1="245.578" y1="186.849" x2="245.578" y2="387.094" gradientUnits="userSpaceOnUse">
<stop stop-color="#F7DD43"/>
<stop offset="1" stop-color="#F7DD43" stop-opacity="0"/>
</linearGradient>
<linearGradient id="paint23_linear_122_130" x1="245.578" y1="186.849" x2="245.578" y2="387.094" gradientUnits="userSpaceOnUse">
<stop stop-color="#F7DD43"/>
<stop offset="1" stop-color="#F7DD43" stop-opacity="0"/>
</linearGradient>
<linearGradient id="paint24_linear_122_130" x1="245.578" y1="186.849" x2="245.578" y2="387.094" gradientUnits="userSpaceOnUse">
<stop stop-color="#F7DD43"/>
<stop offset="1" stop-color="#F7DD43" stop-opacity="0"/>
</linearGradient>
<linearGradient id="paint25_linear_122_130" x1="245.578" y1="186.849" x2="245.578" y2="387.094" gradientUnits="userSpaceOnUse">
<stop stop-color="#F7DD43"/>
<stop offset="1" stop-color="#F7DD43" stop-opacity="0"/>
</linearGradient>
<linearGradient id="paint26_linear_122_130" x1="245.578" y1="186.849" x2="245.578" y2="387.094" gradientUnits="userSpaceOnUse">
<stop stop-color="#F7DD43"/>
<stop offset="1" stop-color="#F7DD43" stop-opacity="0"/>
</linearGradient>
<linearGradient id="paint27_linear_122_130" x1="245.578" y1="186.849" x2="245.578" y2="387.094" gradientUnits="userSpaceOnUse">
<stop stop-color="#F7DD43"/>
<stop offset="1" stop-color="#F7DD43" stop-opacity="0"/>
</linearGradient>
<linearGradient id="paint28_linear_122_130" x1="245.578" y1="186.849" x2="245.578" y2="387.094" gradientUnits="userSpaceOnUse">
<stop stop-color="#F7DD43"/>
<stop offset="1" stop-color="#F7DD43" stop-opacity="0"/>
</linearGradient>
<linearGradient id="paint29_linear_122_130" x1="245.578" y1="186.849" x2="245.578" y2="387.094" gradientUnits="userSpaceOnUse">
<stop stop-color="#F7DD43"/>
<stop offset="1" stop-color="#F7DD43" stop-opacity="0"/>
</linearGradient>
<linearGradient id="paint30_linear_122_130" x1="245.578" y1="186.849" x2="245.578" y2="387.094" gradientUnits="userSpaceOnUse">
<stop stop-color="#F7DD43"/>
<stop offset="1" stop-color="#F7DD43" stop-opacity="0"/>
</linearGradient>
<linearGradient id="paint31_linear_122_130" x1="245.578" y1="186.849" x2="245.578" y2="387.094" gradientUnits="userSpaceOnUse">
<stop stop-color="#F7DD43"/>
<stop offset="1" stop-color="#F7DD43" stop-opacity="0"/>
</linearGradient>
<linearGradient id="paint32_linear_122_130" x1="245.578" y1="186.849" x2="245.578" y2="387.094" gradientUnits="userSpaceOnUse">
<stop stop-color="#F7DD43"/>
<stop offset="1" stop-color="#F7DD43" stop-opacity="0"/>
</linearGradient>
<linearGradient id="paint33_linear_122_130" x1="245.578" y1="186.849" x2="245.578" y2="387.094" gradientUnits="userSpaceOnUse">
<stop stop-color="#F7DD43"/>
<stop offset="1" stop-color="#F7DD43" stop-opacity="0"/>
</linearGradient>
<linearGradient id="paint34_linear_122_130" x1="245.578" y1="186.849" x2="245.578" y2="387.094" gradientUnits="userSpaceOnUse">
<stop stop-color="#F7DD43"/>
<stop offset="1" stop-color="#F7DD43" stop-opacity="0"/>
</linearGradient>
<linearGradient id="paint35_linear_122_130" x1="245.578" y1="186.849" x2="245.578" y2="387.094" gradientUnits="userSpaceOnUse">
<stop stop-color="#F7DD43"/>
<stop offset="1" stop-color="#F7DD43" stop-opacity="0"/>
</linearGradient>
<linearGradient id="paint36_linear_122_130" x1="245.578" y1="186.849" x2="245.578" y2="387.094" gradientUnits="userSpaceOnUse">
<stop stop-color="#F7DD43"/>
<stop offset="1" stop-color="#F7DD43" stop-opacity="0"/>
</linearGradient>
<linearGradient id="paint37_linear_122_130" x1="245.578" y1="186.849" x2="245.578" y2="387.094" gradientUnits="userSpaceOnUse">
<stop stop-color="#F7DD43"/>
<stop offset="1" stop-color="#F7DD43" stop-opacity="0"/>
</linearGradient>
<linearGradient id="paint38_linear_122_130" x1="245.578" y1="186.849" x2="245.578" y2="387.094" gradientUnits="userSpaceOnUse">
<stop stop-color="#F7DD43"/>
<stop offset="1" stop-color="#F7DD43" stop-opacity="0"/>
</linearGradient>
<linearGradient id="paint39_linear_122_130" x1="245.578" y1="186.849" x2="245.578" y2="387.094" gradientUnits="userSpaceOnUse">
<stop stop-color="#F7DD43"/>
<stop offset="1" stop-color="#F7DD43" stop-opacity="0"/>
</linearGradient>
<linearGradient id="paint40_linear_122_130" x1="245.578" y1="186.849" x2="245.578" y2="387.094" gradientUnits="userSpaceOnUse">
<stop stop-color="#F7DD43"/>
<stop offset="1" stop-color="#F7DD43" stop-opacity="0"/>
</linearGradient>
<linearGradient id="paint41_linear_122_130" x1="245.578" y1="186.849" x2="245.578" y2="387.094" gradientUnits="userSpaceOnUse">
<stop stop-color="#F7DD43"/>
<stop offset="1" stop-color="#F7DD43" stop-opacity="0"/>
</linearGradient>
<linearGradient id="paint42_linear_122_130" x1="245.578" y1="186.849" x2="245.578" y2="387.094" gradientUnits="userSpaceOnUse">
<stop stop-color="#F7DD43"/>
<stop offset="1" stop-color="#F7DD43" stop-opacity="0"/>
</linearGradient>
<linearGradient id="paint43_linear_122_130" x1="245.578" y1="186.849" x2="245.578" y2="387.094" gradientUnits="userSpaceOnUse">
<stop stop-color="#F7DD43"/>
<stop offset="1" stop-color="#F7DD43" stop-opacity="0"/>
</linearGradient>
<linearGradient id="paint44_linear_122_130" x1="245.578" y1="186.849" x2="245.578" y2="387.094" gradientUnits="userSpaceOnUse">
<stop stop-color="#F7DD43"/>
<stop offset="1" stop-color="#F7DD43" stop-opacity="0"/>
</linearGradient>
<linearGradient id="paint45_linear_122_130" x1="245.578" y1="186.849" x2="245.578" y2="387.094" gradientUnits="userSpaceOnUse">
<stop stop-color="#F7DD43"/>
<stop offset="1" stop-color="#F7DD43" stop-opacity="0"/>
</linearGradient>
<linearGradient id="paint46_linear_122_130" x1="245.578" y1="186.849" x2="245.578" y2="387.094" gradientUnits="userSpaceOnUse">
<stop stop-color="#F7DD43"/>
<stop offset="1" stop-color="#F7DD43" stop-opacity="0"/>
</linearGradient>
<linearGradient id="paint47_linear_122_130" x1="774.139" y1="-6.07715" x2="774.139" y2="186.089" gradientUnits="userSpaceOnUse">
<stop stop-color="#F7DD43"/>
<stop offset="1" stop-color="#F7DD43" stop-opacity="0"/>
</linearGradient>
<linearGradient id="paint48_linear_122_130" x1="774.139" y1="-6.07715" x2="774.139" y2="186.089" gradientUnits="userSpaceOnUse">
<stop stop-color="#F7DD43"/>
<stop offset="1" stop-color="#F7DD43" stop-opacity="0"/>
</linearGradient>
<linearGradient id="paint49_linear_122_130" x1="774.139" y1="-6.07715" x2="774.139" y2="186.089" gradientUnits="userSpaceOnUse">
<stop stop-color="#F7DD43"/>
<stop offset="1" stop-color="#F7DD43" stop-opacity="0"/>
</linearGradient>
<linearGradient id="paint50_linear_122_130" x1="774.139" y1="-6.07715" x2="774.139" y2="186.089" gradientUnits="userSpaceOnUse">
<stop stop-color="#F7DD43"/>
<stop offset="1" stop-color="#F7DD43" stop-opacity="0"/>
</linearGradient>
<linearGradient id="paint51_linear_122_130" x1="774.139" y1="-6.07715" x2="774.139" y2="186.089" gradientUnits="userSpaceOnUse">
<stop stop-color="#F7DD43"/>
<stop offset="1" stop-color="#F7DD43" stop-opacity="0"/>
</linearGradient>
<linearGradient id="paint52_linear_122_130" x1="774.139" y1="-6.07715" x2="774.139" y2="186.089" gradientUnits="userSpaceOnUse">
<stop stop-color="#F7DD43"/>
<stop offset="1" stop-color="#F7DD43" stop-opacity="0"/>
</linearGradient>
<linearGradient id="paint53_linear_122_130" x1="774.139" y1="-6.07715" x2="774.139" y2="186.089" gradientUnits="userSpaceOnUse">
<stop stop-color="#F7DD43"/>
<stop offset="1" stop-color="#F7DD43" stop-opacity="0"/>
</linearGradient>
<linearGradient id="paint54_linear_122_130" x1="774.139" y1="-6.07715" x2="774.139" y2="186.089" gradientUnits="userSpaceOnUse">
<stop stop-color="#F7DD43"/>
<stop offset="1" stop-color="#F7DD43" stop-opacity="0"/>
</linearGradient>
<linearGradient id="paint55_linear_122_130" x1="774.139" y1="-6.07715" x2="774.139" y2="186.089" gradientUnits="userSpaceOnUse">
<stop stop-color="#F7DD43"/>
<stop offset="1" stop-color="#F7DD43" stop-opacity="0"/>
</linearGradient>
<linearGradient id="paint56_linear_122_130" x1="774.139" y1="-6.07715" x2="774.139" y2="186.089" gradientUnits="userSpaceOnUse">
<stop stop-color="#F7DD43"/>
<stop offset="1" stop-color="#F7DD43" stop-opacity="0"/>
</linearGradient>
<linearGradient id="paint57_linear_122_130" x1="774.139" y1="-6.07715" x2="774.139" y2="186.089" gradientUnits="userSpaceOnUse">
<stop stop-color="#F7DD43"/>
<stop offset="1" stop-color="#F7DD43" stop-opacity="0"/>
</linearGradient>
<linearGradient id="paint58_linear_122_130" x1="774.139" y1="-6.07715" x2="774.139" y2="186.089" gradientUnits="userSpaceOnUse">
<stop stop-color="#F7DD43"/>
<stop offset="1" stop-color="#F7DD43" stop-opacity="0"/>
</linearGradient>
<linearGradient id="paint59_linear_122_130" x1="774.139" y1="-6.07715" x2="774.139" y2="186.089" gradientUnits="userSpaceOnUse">
<stop stop-color="#F7DD43"/>
<stop offset="1" stop-color="#F7DD43" stop-opacity="0"/>
</linearGradient>
<linearGradient id="paint60_linear_122_130" x1="774.139" y1="-6.07715" x2="774.139" y2="186.089" gradientUnits="userSpaceOnUse">
<stop stop-color="#F7DD43"/>
<stop offset="1" stop-color="#F7DD43" stop-opacity="0"/>
</linearGradient>
<linearGradient id="paint61_linear_122_130" x1="774.139" y1="-6.07715" x2="774.139" y2="186.089" gradientUnits="userSpaceOnUse">
<stop stop-color="#F7DD43"/>
<stop offset="1" stop-color="#F7DD43" stop-opacity="0"/>
</linearGradient>
<linearGradient id="paint62_linear_122_130" x1="774.139" y1="-6.07715" x2="774.139" y2="186.089" gradientUnits="userSpaceOnUse">
<stop stop-color="#F7DD43"/>
<stop offset="1" stop-color="#F7DD43" stop-opacity="0"/>
</linearGradient>
<linearGradient id="paint63_linear_122_130" x1="774.139" y1="-6.07715" x2="774.139" y2="186.089" gradientUnits="userSpaceOnUse">
<stop stop-color="#F7DD43"/>
<stop offset="1" stop-color="#F7DD43" stop-opacity="0"/>
</linearGradient>
<linearGradient id="paint64_linear_122_130" x1="774.139" y1="-6.07715" x2="774.139" y2="186.089" gradientUnits="userSpaceOnUse">
<stop stop-color="#F7DD43"/>
<stop offset="1" stop-color="#F7DD43" stop-opacity="0"/>
</linearGradient>
<linearGradient id="paint65_linear_122_130" x1="774.139" y1="-6.07715" x2="774.139" y2="186.089" gradientUnits="userSpaceOnUse">
<stop stop-color="#F7DD43"/>
<stop offset="1" stop-color="#F7DD43" stop-opacity="0"/>
</linearGradient>
<linearGradient id="paint66_linear_122_130" x1="774.139" y1="-6.07715" x2="774.139" y2="186.089" gradientUnits="userSpaceOnUse">
<stop stop-color="#F7DD43"/>
<stop offset="1" stop-color="#F7DD43" stop-opacity="0"/>
</linearGradient>
<linearGradient id="paint67_linear_122_130" x1="774.139" y1="-6.07715" x2="774.139" y2="186.089" gradientUnits="userSpaceOnUse">
<stop stop-color="#F7DD43"/>
<stop offset="1" stop-color="#F7DD43" stop-opacity="0"/>
</linearGradient>
<linearGradient id="paint68_linear_122_130" x1="774.139" y1="-6.07715" x2="774.139" y2="186.089" gradientUnits="userSpaceOnUse">
<stop stop-color="#F7DD43"/>
<stop offset="1" stop-color="#F7DD43" stop-opacity="0"/>
</linearGradient>
<linearGradient id="paint69_linear_122_130" x1="774.139" y1="-6.07715" x2="774.139" y2="186.089" gradientUnits="userSpaceOnUse">
<stop stop-color="#F7DD43"/>
<stop offset="1" stop-color="#F7DD43" stop-opacity="0"/>
</linearGradient>
<linearGradient id="paint70_linear_122_130" x1="774.139" y1="-6.07715" x2="774.139" y2="186.089" gradientUnits="userSpaceOnUse">
<stop stop-color="#F7DD43"/>
<stop offset="1" stop-color="#F7DD43" stop-opacity="0"/>
</linearGradient>
<linearGradient id="paint71_linear_122_130" x1="774.139" y1="-6.07715" x2="774.139" y2="186.089" gradientUnits="userSpaceOnUse">
<stop stop-color="#F7DD43"/>
<stop offset="1" stop-color="#F7DD43" stop-opacity="0"/>
</linearGradient>
<linearGradient id="paint72_linear_122_130" x1="774.139" y1="-6.07715" x2="774.139" y2="186.089" gradientUnits="userSpaceOnUse">
<stop stop-color="#F7DD43"/>
<stop offset="1" stop-color="#F7DD43" stop-opacity="0"/>
</linearGradient>
<linearGradient id="paint73_linear_122_130" x1="774.139" y1="-6.07715" x2="774.139" y2="186.089" gradientUnits="userSpaceOnUse">
<stop stop-color="#F7DD43"/>
<stop offset="1" stop-color="#F7DD43" stop-opacity="0"/>
</linearGradient>
<linearGradient id="paint74_linear_122_130" x1="774.139" y1="-6.07715" x2="774.139" y2="186.089" gradientUnits="userSpaceOnUse">
<stop stop-color="#F7DD43"/>
<stop offset="1" stop-color="#F7DD43" stop-opacity="0"/>
</linearGradient>
<linearGradient id="paint75_linear_122_130" x1="774.139" y1="-6.07715" x2="774.139" y2="186.089" gradientUnits="userSpaceOnUse">
<stop stop-color="#F7DD43"/>
<stop offset="1" stop-color="#F7DD43" stop-opacity="0"/>
</linearGradient>
<linearGradient id="paint76_linear_122_130" x1="774.139" y1="-6.07715" x2="774.139" y2="186.089" gradientUnits="userSpaceOnUse">
<stop stop-color="#F7DD43"/>
<stop offset="1" stop-color="#F7DD43" stop-opacity="0"/>
</linearGradient>
<linearGradient id="paint77_linear_122_130" x1="774.139" y1="-6.07715" x2="774.139" y2="186.089" gradientUnits="userSpaceOnUse">
<stop stop-color="#F7DD43"/>
<stop offset="1" stop-color="#F7DD43" stop-opacity="0"/>
</linearGradient>
<linearGradient id="paint78_linear_122_130" x1="774.139" y1="-6.07715" x2="774.139" y2="186.089" gradientUnits="userSpaceOnUse">
<stop stop-color="#F7DD43"/>
<stop offset="1" stop-color="#F7DD43" stop-opacity="0"/>
</linearGradient>
<linearGradient id="paint79_linear_122_130" x1="774.139" y1="-6.07715" x2="774.139" y2="186.089" gradientUnits="userSpaceOnUse">
<stop stop-color="#F7DD43"/>
<stop offset="1" stop-color="#F7DD43" stop-opacity="0"/>
</linearGradient>
<linearGradient id="paint80_linear_122_130" x1="774.139" y1="-6.07715" x2="774.139" y2="186.089" gradientUnits="userSpaceOnUse">
<stop stop-color="#F7DD43"/>
<stop offset="1" stop-color="#F7DD43" stop-opacity="0"/>
</linearGradient>
<linearGradient id="paint81_linear_122_130" x1="774.139" y1="-6.07715" x2="774.139" y2="186.089" gradientUnits="userSpaceOnUse">
<stop stop-color="#F7DD43"/>
<stop offset="1" stop-color="#F7DD43" stop-opacity="0"/>
</linearGradient>
<linearGradient id="paint82_linear_122_130" x1="774.139" y1="-6.07715" x2="774.139" y2="186.089" gradientUnits="userSpaceOnUse">
<stop stop-color="#F7DD43"/>
<stop offset="1" stop-color="#F7DD43" stop-opacity="0"/>
</linearGradient>
<linearGradient id="paint83_linear_122_130" x1="774.139" y1="-6.07715" x2="774.139" y2="186.089" gradientUnits="userSpaceOnUse">
<stop stop-color="#F7DD43"/>
<stop offset="1" stop-color="#F7DD43" stop-opacity="0"/>
</linearGradient>
<linearGradient id="paint84_linear_122_130" x1="774.139" y1="-6.07715" x2="774.139" y2="186.089" gradientUnits="userSpaceOnUse">
<stop stop-color="#F7DD43"/>
<stop offset="1" stop-color="#F7DD43" stop-opacity="0"/>
</linearGradient>
<linearGradient id="paint85_linear_122_130" x1="774.139" y1="-6.07715" x2="774.139" y2="186.089" gradientUnits="userSpaceOnUse">
<stop stop-color="#F7DD43"/>
<stop offset="1" stop-color="#F7DD43" stop-opacity="0"/>
</linearGradient>
<linearGradient id="paint86_linear_122_130" x1="774.139" y1="-6.07715" x2="774.139" y2="186.089" gradientUnits="userSpaceOnUse">
<stop stop-color="#F7DD43"/>
<stop offset="1" stop-color="#F7DD43" stop-opacity="0"/>
</linearGradient>
<linearGradient id="paint87_linear_122_130" x1="774.139" y1="-6.07715" x2="774.139" y2="186.089" gradientUnits="userSpaceOnUse">
<stop stop-color="#F7DD43"/>
<stop offset="1" stop-color="#F7DD43" stop-opacity="0"/>
</linearGradient>
<linearGradient id="paint88_linear_122_130" x1="774.139" y1="-6.07715" x2="774.139" y2="186.089" gradientUnits="userSpaceOnUse">
<stop stop-color="#F7DD43"/>
<stop offset="1" stop-color="#F7DD43" stop-opacity="0"/>
</linearGradient>
<linearGradient id="paint89_linear_122_130" x1="774.139" y1="-6.07715" x2="774.139" y2="186.089" gradientUnits="userSpaceOnUse">
<stop stop-color="#F7DD43"/>
<stop offset="1" stop-color="#F7DD43" stop-opacity="0"/>
</linearGradient>
<linearGradient id="paint90_linear_122_130" x1="774.139" y1="-6.07715" x2="774.139" y2="186.089" gradientUnits="userSpaceOnUse">
<stop stop-color="#F7DD43"/>
<stop offset="1" stop-color="#F7DD43" stop-opacity="0"/>
</linearGradient>
<linearGradient id="paint91_linear_122_130" x1="774.139" y1="-6.07715" x2="774.139" y2="186.089" gradientUnits="userSpaceOnUse">
<stop stop-color="#F7DD43"/>
<stop offset="1" stop-color="#F7DD43" stop-opacity="0"/>
</linearGradient>
<linearGradient id="paint92_linear_122_130" x1="774.139" y1="-6.07715" x2="774.139" y2="186.089" gradientUnits="userSpaceOnUse">
<stop stop-color="#F7DD43"/>
<stop offset="1" stop-color="#F7DD43" stop-opacity="0"/>
</linearGradient>
<linearGradient id="paint93_linear_122_130" x1="774.139" y1="-6.07715" x2="774.139" y2="186.089" gradientUnits="userSpaceOnUse">
<stop stop-color="#F7DD43"/>
<stop offset="1" stop-color="#F7DD43" stop-opacity="0"/>
</linearGradient>
<clipPath id="clip0_122_130">
<rect width="1024" height="753" fill="white"/>
</clipPath>
</defs>
</svg>
